<?xml version="1.0" encoding="utf-8"?>
<!-- Generator: Adobe Illustrator 16.0.0, SVG Export Plug-In . SVG Version: 6.00 Build 0)  -->
<!DOCTYPE svg PUBLIC "-//W3C//DTD SVG 1.1//EN" "http://www.w3.org/Graphics/SVG/1.1/DTD/svg11.dtd">
<svg version="1.1" id="Layer_1" xmlns="http://www.w3.org/2000/svg" xmlns:xlink="http://www.w3.org/1999/xlink" x="0px" y="0px"
	 width="380.5px" height="89.5px" viewBox="0 0 380.5 89.5" enable-background="new 0 0 380.5 89.5" xml:space="preserve">
<linearGradient id="SVGID_1_" gradientUnits="userSpaceOnUse" x1="2.958" y1="44.8149" x2="88.1641" y2="44.8149">
	<stop  offset="0" style="stop-color:#EC1956"/>
	<stop  offset="1" style="stop-color:#C11043"/>
</linearGradient>
<path fill="url(#SVGID_1_)" d="M88.164,76.768c0,5.882-4.769,10.65-10.651,10.65H13.608c-5.882,0-10.65-4.769-10.65-10.65V12.862
	c0-5.882,4.769-10.65,10.65-10.65h63.904c5.883,0,10.651,4.769,10.651,10.65V76.768z"/>
<path fill="#FFFFFF" d="M88.163,47.686V24.283C83.496,12.869,77.377,6.75,65.962,2.082H42.561
	C66.09,2.082,88.163,24.156,88.163,47.686z"/>
<path fill="#c30e41ff" d="M178.54,59.948v14.55c0,5.883,4.77,10.651,10.651,10.651h14.55C185.29,82.696,179.413,72.549,178.54,59.948z
	"/>
<path fill="#FFFFFF" d="M2.958,41.814v23.402c4.667,11.414,10.787,17.534,22.201,22.201h23.401
	C25.032,87.418,2.958,65.344,2.958,41.814z"/>
<path fill-rule="evenodd" clip-rule="evenodd" fill="#FFFFFF" d="M39.43,28.997c-2.772,0-5.454,0.05-8.132-0.015
	c-2.318-0.056-4.644-0.138-6.942-0.408c-1.597-0.186-3.051-0.911-3.916-2.394c-2.039-3.501-0.021-7.685,4.039-8.3
	c1.609-0.243,3.249-0.376,4.876-0.392c5.21-0.052,10.419-0.04,15.629-0.018c2.029,0.008,3.982,0.306,5.429,1.971
	c1.055,1.215,1.512,2.701,1.578,4.229c0.151,3.518,0.183,7.042,0.189,10.563c0.014,8.225,0.034,16.448-0.05,24.671
	c-0.038,3.762-1.293,7.164-3.765,10.049c-2.288,2.67-5.315,4.086-8.668,4.849c-5.107,1.163-10.15,0.905-15.034-1.05
	c-4.65-1.861-7.651-5.298-9.194-10.038c-0.773-2.378-1.073-4.83-1.049-7.317c0.027-2.708,1.233-4.195,3.901-4.676
	c2.177-0.394,4.393-0.439,6.513,0.291c2.632,0.91,3.148,1.921,3.22,4.146c0.06,1.836,0.096,3.678,0.785,5.426
	c0.716,1.814,2.02,2.935,3.953,3.201c2.002,0.278,3.94,0.205,5.404-1.527c0.962-1.14,1.272-2.509,1.276-3.92
	c0.029-9.551,0.017-19.104,0.014-28.654C39.485,29.486,39.455,29.289,39.43,28.997z"/>
<g>
	<g>
		<path fill-rule="evenodd" clip-rule="evenodd" fill="#ffffffff" d="M58.333,18.143c2.449-0.069,5.232,0.242,7.907,1.337
			c4.3,1.761,6.454,5.107,7.156,9.542c0.113,0.712,0.097,1.446,0.149,2.167c0.197,2.712-1.592,4.988-4.633,5.568
			c-2.508,0.477-5.363-0.896-6.322-3.073c-0.208-0.471-0.251-1.02-0.33-1.541c-0.053-0.356-0.028-0.724-0.052-1.086
			c-0.169-2.595-1.377-3.833-3.956-3.962c-0.741-0.038-1.501,0.046-2.236,0.17c-1.899,0.321-2.63,1.465-2.918,3.613
			C52.8,33.126,53.538,35,55.245,36.438c1.123,0.946,2.333,1.801,3.56,2.614c3.06,2.026,6.263,3.857,9.2,6.045
			c3.11,2.318,5.232,5.468,5.862,9.372c0.763,4.724,0.176,9.223-2.932,13.1c-2.013,2.51-4.805,3.804-7.819,4.56
			c-3.866,0.967-7.793,1.148-11.708,0.203c-4.125-0.998-7.394-3.153-9.329-7.058c-1.028-2.074-1.531-4.278-1.466-6.585
			c0.074-2.58,1.604-4.391,4.119-5.004c2.677-0.652,5.577,0.411,7.054,2.553c0.621,0.901,0.748,1.919,0.832,2.961
			c0.028,0.337,0.02,0.68,0.075,1.011c0.351,2.117,1.017,2.898,3.175,3.273c1.903,0.33,3.805,0.238,5.194-1.396
			c0.39-0.457,0.668-1.08,0.799-1.672c0.592-2.663,0.062-5.073-1.752-7.173c-1.713-1.986-3.829-3.456-6.021-4.848
			c-3.202-2.034-6.454-4.001-9.154-6.73c-2.71-2.74-3.93-6.009-3.702-9.854c0.118-1.984,0.254-3.955,0.928-5.845
			c1.301-3.649,3.854-5.937,7.573-6.943C52.418,18.298,55.166,18.138,58.333,18.143z M57.439,18.686
			c-2.246,0.057-4.997,0.165-7.668,0.964c-3.531,1.058-5.997,3.211-7.133,6.786c-0.645,2.028-0.817,4.12-0.86,6.225
			c-0.06,2.956,0.916,5.55,2.854,7.777c2.139,2.458,4.842,4.202,7.512,6.003c2.382,1.605,4.79,3.2,7.006,5.019
			c2.398,1.971,3.819,4.538,3.516,7.803c-0.186,1.994-0.841,3.775-2.886,4.461c-1.109,0.373-2.385,0.482-3.559,0.386
			c-2.64-0.217-3.763-1.394-4.154-4.005c-0.046-0.309,0.01-0.639-0.065-0.938c-0.213-0.855-0.309-1.795-0.738-2.534
			c-1.168-2.011-3.891-2.929-6.438-2.33c-2.057,0.484-3.347,1.802-3.586,3.854c-0.101,0.875-0.037,1.795,0.106,2.669
			c0.8,4.94,3.364,8.568,8.156,10.301c5.054,1.827,10.168,1.597,15.211-0.106c3.583-1.209,6.238-3.51,7.694-7.083
			c0.795-1.953,1.108-3.985,1.165-6.083c0.102-3.796-1.065-7.126-3.526-10.009c-2.041-2.391-4.641-4.069-7.26-5.73
			c-2.467-1.564-5.002-3.043-7.347-4.776c-2.792-2.063-3.586-4.707-2.682-7.802c0.479-1.634,1.522-2.698,3.251-2.887
			c1.028-0.112,2.09-0.164,3.112-0.038c1.694,0.211,2.925,1.138,3.368,2.856c0.197,0.766,0.318,1.571,0.322,2.358
			c0.009,1.472,0.685,2.521,1.818,3.358c1.236,0.916,2.614,1.164,4.117,0.983c2.358-0.285,4.141-2.163,4.19-4.527
			c0.018-0.89-0.022-1.794-0.163-2.672c-0.664-4.122-2.708-7.216-6.665-8.906C63.49,18.944,60.75,18.67,57.439,18.686z"/>
		<linearGradient id="SVGID_2_" gradientUnits="userSpaceOnUse" x1="41.1943" y1="45.5444" x2="73.5815" y2="45.5444">
			<stop  offset="0" style="stop-color:#EC1956"/>
			<stop  offset="1" style="stop-color:#C11043"/>
		</linearGradient>
		<path fill="url(#SVGID_2_)" d="M56.696,73.956c-1.876,0-3.734-0.219-5.523-0.651c-4.698-1.136-8.059-3.688-9.99-7.586
			c-1.111-2.24-1.639-4.614-1.569-7.057c0.086-3,1.911-5.223,4.882-5.947c0.597-0.145,1.214-0.219,1.835-0.219
			c2.522,0,4.929,1.217,6.279,3.176c0.759,1.102,0.913,2.307,1.005,3.447c0.011,0.134,0.018,0.27,0.023,0.406
			c0.007,0.175,0.013,0.351,0.041,0.522c0.29,1.749,0.687,2.162,2.36,2.452c2.079,0.361,3.324,0.043,4.26-1.058
			c0.263-0.309,0.481-0.772,0.585-1.24c0.539-2.424,0.038-4.485-1.532-6.303c-1.543-1.789-3.435-3.155-5.8-4.657l-0.775-0.491
			c-2.945-1.863-5.991-3.79-8.553-6.38c-2.892-2.923-4.234-6.495-3.989-10.616c0.135-2.284,0.294-4.185,0.984-6.121
			c1.398-3.92,4.175-6.468,8.253-7.573c2.977-0.806,5.958-0.917,8.735-0.917h0.126c0.192-0.006,0.417-0.009,0.643-0.009
			c2.769,0,5.339,0.478,7.642,1.421c4.351,1.782,6.963,5.251,7.765,10.311c0.083,0.524,0.103,1.037,0.123,1.532
			c0.009,0.24,0.019,0.48,0.036,0.719c0.239,3.295-1.949,5.957-5.444,6.623c-0.392,0.074-0.798,0.112-1.208,0.112
			c-2.683,0-5.239-1.548-6.216-3.764c-0.227-0.512-0.3-1.046-0.364-1.518l-0.039-0.277c-0.04-0.265-0.046-0.533-0.05-0.802
			c-0.001-0.123-0.003-0.246-0.011-0.368c-0.137-2.105-0.952-2.926-3.008-3.029c-0.596-0.03-1.21,0.021-2.019,0.157
			c-1.17,0.198-1.815,0.679-2.093,2.76c-0.253,1.904,0.335,3.43,1.799,4.664c0.947,0.798,2.017,1.583,3.468,2.545
			c1.072,0.709,2.161,1.395,3.25,2.081c1.997,1.256,4.061,2.556,5.995,3.997c3.447,2.569,5.609,6.032,6.251,10.015
			c0.901,5.583-0.125,10.125-3.139,13.885c-1.898,2.367-4.631,3.971-8.356,4.904C61.089,73.667,58.847,73.956,56.696,73.956z
			 M46.384,55.122c-0.448,0-0.896,0.052-1.331,0.154c-1.686,0.396-2.636,1.404-2.821,2.996c-0.08,0.692-0.046,1.498,0.1,2.392
			c0.777,4.798,3.304,8.001,7.509,9.522c4.56,1.648,9.451,1.609,14.551-0.113c3.412-1.152,5.796-3.343,7.087-6.514
			c0.675-1.657,1.032-3.532,1.091-5.733c0.096-3.577-0.979-6.629-3.287-9.333c-1.999-2.341-4.675-4.038-7.036-5.536
			c-0.626-0.396-1.257-0.788-1.888-1.18c-1.838-1.141-3.739-2.321-5.518-3.637c-3.036-2.244-4.09-5.317-3.047-8.887
			c0.625-2.131,2.043-3.376,4.103-3.601c1.327-0.145,2.384-0.155,3.343-0.036c2.19,0.273,3.686,1.551,4.214,3.599
			c0.231,0.898,0.35,1.774,0.354,2.604c0.006,1.052,0.442,1.842,1.413,2.559c0.956,0.708,2.101,0.953,3.403,0.794
			c1.879-0.228,3.271-1.723,3.31-3.555c0.019-0.929-0.03-1.745-0.15-2.493c-0.646-4.012-2.632-6.677-6.07-8.145
			c-2.155-0.921-4.478-1.296-8.016-1.296l-0.255,0c-2.371,0.061-4.913,0.182-7.387,0.922c-3.359,1.006-5.475,3.012-6.467,6.131
			c-0.651,2.048-0.777,4.153-0.813,5.942c-0.054,2.661,0.824,5.05,2.608,7.101c1.908,2.192,4.272,3.782,6.776,5.466l1.049,0.706
			c2.201,1.481,4.478,3.013,6.573,4.733c2.887,2.373,4.191,5.289,3.877,8.668c-0.098,1.052-0.396,4.253-3.563,5.317
			c-1.17,0.393-2.606,0.546-3.959,0.434c-3.034-0.25-4.595-1.747-5.061-4.853c-0.027-0.183-0.032-0.37-0.032-0.557
			c0-0.105-0.001-0.236-0.014-0.286c-0.06-0.241-0.111-0.486-0.163-0.733c-0.122-0.586-0.237-1.14-0.471-1.542
			C49.677,55.894,48.139,55.122,46.384,55.122z"/>
	</g>
	<path fill-rule="evenodd" clip-rule="evenodd" fill="#FFFFFF" d="M57.444,18.687c3.311-0.015,6.052,0.259,8.67,1.377
		c3.955,1.689,5.999,4.783,6.663,8.905c0.141,0.878,0.181,1.782,0.163,2.673c-0.048,2.364-1.831,4.242-4.19,4.527
		c-1.501,0.182-2.881-0.067-4.118-0.982c-1.133-0.84-1.809-1.888-1.817-3.359c-0.005-0.788-0.126-1.594-0.323-2.359
		c-0.443-1.718-1.674-2.644-3.369-2.854c-1.021-0.127-2.083-0.075-3.111,0.037c-1.729,0.189-2.773,1.252-3.252,2.887
		c-0.905,3.095-0.11,5.738,2.682,7.802c2.345,1.734,4.879,3.212,7.347,4.777c2.62,1.662,5.218,3.339,7.26,5.729
		c2.463,2.884,3.628,6.213,3.527,10.01c-0.057,2.098-0.368,4.128-1.164,6.083c-1.456,3.573-4.11,5.873-7.694,7.084
		c-5.042,1.703-10.157,1.933-15.211,0.105c-4.792-1.732-7.355-5.361-8.156-10.3c-0.143-0.874-0.208-1.794-0.106-2.669
		c0.238-2.053,1.528-3.37,3.585-3.853c2.547-0.6,5.271,0.318,6.439,2.329c0.429,0.739,0.525,1.678,0.738,2.534
		c0.075,0.299,0.019,0.629,0.065,0.939c0.392,2.609,1.513,3.787,4.155,4.003c1.173,0.097,2.45-0.012,3.559-0.385
		c2.045-0.688,2.7-2.467,2.886-4.462c0.302-3.264-1.119-5.832-3.518-7.803c-2.214-1.82-4.622-3.413-7.004-5.02
		c-2.67-1.799-5.373-3.545-7.512-6.002c-1.938-2.229-2.914-4.823-2.854-7.778c0.043-2.105,0.215-4.196,0.86-6.224
		c1.137-3.575,3.602-5.729,7.132-6.787C52.448,18.852,55.199,18.744,57.444,18.687z"/>
</g>
<g>
	<linearGradient id="SVGID_3_" gradientUnits="userSpaceOnUse" x1="95.6729" y1="48.8911" x2="171.3105" y2="48.8911">
		<stop  offset="0" style="stop-color:#EC1956"/>
		<stop  offset="1" style="stop-color:#C11043"/>
	</linearGradient>
	<path fill="url(#SVGID_3_)" d="M154.006,18.14c-5.006,0-8.488,1.491-11.645,4.225c-2.177,1.863-4.244,4.473-5.877,7.827h-0.218
		c-2.285-7.082-7.727-12.052-14.91-12.052c-8.706,0-13.604,5.343-16.542,11.058h-0.326l-0.436-9.691h-8.38
		c0.326,4.971,0.436,10.064,0.436,16.276v43.86h9.359v-36.28c0-1.864,0.218-3.728,0.762-5.343
		c1.523-5.468,5.877-10.935,11.862-10.935c7.292,0,10.992,6.958,10.992,16.525v36.032h9.359v-37.15c0-1.988,0.326-3.976,0.762-5.467
		c1.633-5.343,5.877-9.94,11.318-9.94c7.728,0,11.428,6.958,11.428,18.514v34.044h9.359V44.231
		C171.311,23.357,160.971,18.14,154.006,18.14z"/>
	<linearGradient id="SVGID_4_" gradientUnits="userSpaceOnUse" x1="182.7363" y1="49.5742" x2="224.7451" y2="49.5742">
		<stop  offset="0" style="stop-color:#EC1956"/>
		<stop  offset="1" style="stop-color:#C11043"/>
	</linearGradient>
	<path fill="url(#SVGID_4_)" d="M223.876,42.74c0-12.052-3.919-24.601-20.026-24.601c-6.639,0-12.95,2.112-17.304,5.343l2.177,7.206
		c3.7-2.733,8.815-4.473,13.713-4.473c10.774,0,11.971,8.945,11.971,13.915v1.243c-20.351-0.124-31.67,7.827-31.67,22.364
		c0,8.697,5.442,17.271,16.107,17.271c7.51,0,13.169-4.225,16.107-8.945h0.326l0.762,7.579h8.706
		c-0.652-4.101-0.869-9.194-0.869-14.413V42.74z M214.625,59.39c0,1.118-0.219,2.36-0.545,3.479
		c-1.523,5.094-5.877,10.063-12.732,10.063c-4.898,0-9.033-3.354-9.033-10.437c0-11.68,11.862-13.792,22.311-13.543V59.39z"/>
	<linearGradient id="SVGID_5_" gradientUnits="userSpaceOnUse" x1="232.9072" y1="41.5605" x2="264.1416" y2="41.5605">
		<stop  offset="0" style="stop-color:#EC1956"/>
		<stop  offset="1" style="stop-color:#C11043"/>
	</linearGradient>
	<path fill="url(#SVGID_5_)" d="M250.429,2.236l-9.359,2.857v14.412h-8.162v8.325h8.162v32.801c0,7.083,0.98,12.425,3.701,15.655
		c2.285,2.982,5.877,4.598,10.338,4.598c3.701,0,6.64-0.621,8.49-1.491l-0.436-8.2c-1.197,0.373-3.048,0.745-5.551,0.745
		c-5.332,0-7.184-4.224-7.184-11.679V27.831h13.713v-8.325h-13.713V2.236z"/>
	<linearGradient id="SVGID_6_" gradientUnits="userSpaceOnUse" x1="274.4805" y1="48.8911" x2="300.9268" y2="48.8911">
		<stop  offset="0" style="stop-color:#EC1956"/>
		<stop  offset="1" style="stop-color:#C11043"/>
	</linearGradient>
	<path fill="url(#SVGID_6_)" d="M283.622,31.31h-0.436l-0.326-11.804h-8.38c0.326,5.592,0.435,11.68,0.435,18.762v41.375h9.469
		V47.586c0-1.863,0.218-3.603,0.436-5.094c1.306-8.2,6.095-14.04,12.842-14.04c1.307,0,2.285,0.124,3.266,0.373V18.512
		c-0.871-0.248-1.633-0.372-2.721-0.372C291.784,18.14,286.017,23.233,283.622,31.31z"/>
	<linearGradient id="SVGID_7_" gradientUnits="userSpaceOnUse" x1="309.7412" y1="9.5762" x2="321.6064" y2="9.5762">
		<stop  offset="0" style="stop-color:#EC1956"/>
		<stop  offset="1" style="stop-color:#C11043"/>
	</linearGradient>
	<path fill="url(#SVGID_7_)" d="M315.726,2.805c-3.482,0-5.984,2.981-5.984,6.833c0,3.728,2.394,6.71,5.768,6.71
		c3.809,0,6.203-2.982,6.094-6.71C321.603,5.786,319.317,2.805,315.726,2.805z"/>
	<linearGradient id="SVGID_8_" gradientUnits="userSpaceOnUse" x1="310.9385" y1="49.5742" x2="320.5146" y2="49.5742">
		<stop  offset="0" style="stop-color:#EC1956"/>
		<stop  offset="1" style="stop-color:#C11043"/>
	</linearGradient>
	<rect x="310.938" y="19.506" fill="url(#SVGID_8_)" width="9.576" height="60.137"/>
	<linearGradient id="SVGID_9_" gradientUnits="userSpaceOnUse" x1="329.3291" y1="49.5742" x2="377.542" y2="49.5742">
		<stop  offset="0" style="stop-color:#EC1956"/>
		<stop  offset="1" style="stop-color:#C11043"/>
	</linearGradient>
	<path fill="url(#SVGID_9_)" d="M359.04,48.58l17.957-29.074h-10.339l-7.399,12.798c-1.742,3.23-3.483,6.337-5.225,9.939h-0.326
		c-1.742-3.354-3.374-6.461-5.334-9.815l-7.508-12.922H330.2l17.848,29.447l-18.719,30.689h10.557l7.619-13.544
		c1.959-3.603,3.809-6.833,5.55-10.437h0.218c1.85,3.604,3.592,6.958,5.659,10.437l7.727,13.544h10.884L359.04,48.58z"/>
</g>
</svg>
